<?xml version="1.0" encoding="utf-8"?>
<!-- Generator: Adobe Illustrator 16.0.3, SVG Export Plug-In . SVG Version: 6.00 Build 0)  -->
<svg version="1.2" baseProfile="tiny" id="Ebene_1" xmlns="http://www.w3.org/2000/svg" xmlns:xlink="http://www.w3.org/1999/xlink"
	 x="0px" y="0px" width="439.37px" height="100px" viewBox="0 0 439.37 212.598" xml:space="preserve">
<g>
	<g>
		<path d="M119.536,136.709c-1.685,1.231-4.599,2.973-6.482,3.874c0,0-2.391,1.149-5.979,1.149
			c-1.203,0-1.203,0-1.203,0c-1.299-0.188-1.674-1.905-0.843-3.814l11.896-27.138c0.838-1.908,2.889-2.448,4.561-1.2l14.187,10.61
			c1.669,1.252,1.306,3.73,0.574,4.328c-0.342,0.282-0.661,0.51-2.346,1.735L119.536,136.709z"/>
		<path d="M70.867,109.901c-0.022-2.087,0.854-5.4,1.498-7.383l5.072-15.63c0.645-1.983,1.382-4.064,1.586-4.635
			c0.71-1.911,2.854-2.304,4.521-1.057l25.832,19.328c1.668,1.248,2.352,3.833,1.514,5.742l-0.765,1.743
			c-0.838,1.908-3.2,3.778-5.25,4.155l-28.779,5.282c-2.051,0.377-4.183-0.958-4.739-2.969
			C71.357,114.478,70.878,111.052,70.867,109.901z"/>
		<path d="M80.83,126.829c-1.691-1.224-1.393-2.534,0.656-2.909l19.832-3.647c2.055-0.375,3.046,0.88,2.208,2.789
			l-5.204,11.872c-0.837,1.908-2.908,2.47-4.593,1.248L80.83,126.829z"/>
		<path d="M88.804,75.964c-1.668-1.252-1.757-2.899-0.192-3.668c1.564-0.768,7.369-1.402,9.456-1.404l17.768-0.025
			c2.086-0.005,4.709,0.108,5.833,0.249c1.117,0.14,3.419,2.784,2.578,4.691l-7.281,16.609c-0.838,1.912-2.886,2.454-4.561,1.203
			L88.804,75.964z"/>
		<path d="M134.098,80.177c0.455,0.975,1.349,3.391,2,5.373l5.51,16.901c0.647,1.982,1.364,5.096,1.596,6.914
			c0.236,1.818-2.11,5.726-3.779,4.472l-14.914-11.152c-1.668-1.25-2.347-3.835-1.509-5.745l7.304-16.659
			C131.135,78.37,133.644,79.206,134.098,80.177z"/>
	</g>
</g>
</svg>
