<svg xmlns="http://www.w3.org/2000/svg" viewBox="0 0 372.07 340.05"><defs><style>.cls-1{fill:#1e88e5;}.cls-2{fill:#9e9e9e;}.cls-3{fill:#c62828;}.cls-4{fill:#f9a825;}.cls-5{fill:#558b2f;}</style></defs><title>logo_farbe</title><g id="Ebene_2" data-name="Ebene 2"><g id="Ebene_1-2" data-name="Ebene 1"><path class="cls-1" d="M.16,187.89C-.9,175.6,3.44,163.5,7.53,151.52,17.84,121.25,28.62,91.15,39.32,61c5.51-15.52,15-19,28.27-9.84q64.74,44.74,129.12,90c15.31,10.78,14.82,29.1.19,45.18-11.23,12.35-26.57,13.16-41.19,15.74C117,208.91,78,214.22,39.53,222,10.18,228,0,219.13.16,187.89Z"/><path class="cls-2" d="M191.55,340c-19,.25-22.38-5-14.61-21.57q28.48-60.84,57.24-121.55c7.75-16.36,15.32-18.54,29.86-8.56q33,22.63,65.67,45.65c13.54,9.55,13.41,19.88-.29,29.07-31.43,21.11-62.78,42.32-94.51,63C221.51,334.7,206.86,340.81,191.55,340Z"/><path class="cls-3" d="M188.6.57c22,0,44-.45,66,.14,17.74.48,25,13.28,17.43,29.43-10.94,23.44-21.83,46.9-33,70.25C232.6,114,223.4,116.54,211.12,108Q152.57,67.46,94.3,26.48C89.64,23.21,84,19.83,85.79,12.76s8.41-7.58,13.9-8.58C129.1-1.22,158.89-.08,188.6.57Z"/><path class="cls-4" d="M372.06,183.53c.19,10.55-3.43,17.78-10.58,22.47s-12.18-1.64-17.38-5.22q-32.4-22.35-64.64-44.94c-14-9.84-16.67-19.82-9.67-34.91C281,96.78,292.47,72.74,303.67,48.59c2.5-5.4,5.78-8.87,12.23-8.6s9.59,3.71,11.71,9.35c15.17,40.38,30.28,80.78,42.17,122.28A114.33,114.33,0,0,1,372.06,183.53Z"/><path class="cls-5" d="M155.81,237.34c13.28-.7,16.69,4.11,11.52,15.44q-12.23,26.83-25.18,53.33c-5.47,11.2-14.52,14.34-24.67,7.75-22.34-14.5-44.26-29.65-66.29-44.63-2.82-1.92-6.06-4.16-5.51-8.18.64-4.68,4.83-6,8.56-6.6C88.47,248.56,122.73,242.88,155.81,237.34Z"/></g></g></svg>