<svg xmlns="http://www.w3.org/2000/svg" xmlns:xlink="http://www.w3.org/1999/xlink" version="1.2" baseProfile="tiny" width="32" height="32" xml:space="preserve"><rect id="backgroundrect" fill="none" stroke="none"/>

<g class="currentLayer" style=""><title>Layer 1</title><g id="svg_1" class="">
	<g id="svg_2" fill="white">
		<path d="M21.458725864882567,29.28782826908815 c-0.7362808544345085,0.5379001375720365 -2.0095879225782203,1.2990878220972055 -2.8323872394329253,1.692790522302245 c0,0 -1.0447759780135955,0.5020692591959955 -2.6125953879311106,0.5020692591959955 c-0.5256652034924113,0 -0.5256652034924113,0 -0.5256652034924113,0 c-0.567613548908266,-0.08214884310604623 -0.7314742731889416,-0.8324124793458385 -0.3683589081829624,-1.6665728064173368 l5.198099136114484,-11.858272894744019 c0.36617409852588634,-0.833723365140084 1.2623830198583355,-1.0696828081042582 1.992983369184445,-0.524354317698166 l6.199178920986564,4.636166092314615 c0.7292894635318654,0.5470763381317528 0.5706722824281713,1.6298680041784652 0.25081614863228985,1.8911712391647175 c-0.1494409805439779,0.12322326465906926 -0.28883183666540757,0.22285058502172073 -1.0251126910999144,0.7581289510052648 L21.458725864882567,29.28782826908815 z" id="svg_3"/>
		<path d="M0.1922256248392164,17.573752811711127 c-0.009613162491133078,-0.9119395508633937 0.3731654894285285,-2.359594429641746 0.6545689732598797,-3.2260899396379648 l2.2162709161375798,-6.829714988018609 c0.2818404457627644,-0.8664955099962185 0.6038813892157203,-1.7758132892711216 0.6930216232244109,-2.025318552109165 c0.31024297130474937,-0.8350342509343295 1.2470893522588042,-1.0067602899804784 1.97550489192784,-0.4618687615058022 l11.287600612315849,8.445600210391788 c0.7288525016004511,0.5453284904060925 1.0277344626884048,1.6748750831142247 0.6615603641625215,2.5090354101857226 l-0.3342758775325819,0.7616246464565865 c-0.36617409852588634,0.833723365140084 -1.398278180528442,1.6508421768863921 -2.2940501399294755,1.8155768250298987 l-12.575327424196258,2.308032921734759 c-0.8962089213324484,0.16473464814350774 -1.8278117591095224,-0.41860953029570297 -2.0707625929763394,-1.2973399743715457 C0.4063369712326299,19.573727571798212 0.19703220608477884,18.076695994769953 0.1922256248392164,17.573752811711127 z" id="svg_4"/>
		<path d="M4.5456773475282315,24.970644386706585 c-0.7389026260229986,-0.5348414040521304 -0.608687970461289,-1.10726153420596 0.2866470270083316,-1.2711222584866366 l8.665829023825019,-1.5936001638710091 c0.8979567690581096,-0.1638607242806773 1.3309860430905114,0.3845264996453215 0.9648119445646256,1.21868682671682 l-2.2739498910843787,5.1876120497605225 c-0.36573713659447143,0.833723365140084 -1.270685296555222,1.0792959705953913 -2.0069661509897294,0.5453284904060925 L4.5456773475282315,24.970644386706585 z" id="svg_5"/>
		<path d="M8.030011788632542,2.7445757452755846 c-0.7288525016004511,-0.5470763381317528 -0.767742113496398,-1.2667526391724866 -0.08389669083170684,-1.6027763644307267 c0.6834084607332773,-0.33558676332682696 3.219972472598153,-0.6126206278440242 4.131912023461546,-0.6134945517068553 l7.763939597384176,-0.010924048285378475 c0.9115025889319779,-0.002184809657075701 2.0576537350338855,0.04719188859283501 2.5487989459445006,0.10880352092236956 c0.4880864773907098,0.061174670398119406 1.4939728435083577,1.2165020170597445 1.126487859188226,2.0497884202684125 l-3.18151982263362,7.257500718874027 c-0.36617409852588634,0.8354712128657447 -1.2610721340640887,1.072304579692749 -1.992983369184445,0.5256652034924113 L8.030011788632542,2.7445757452755846 z" id="svg_6"/>
		<path d="M27.821765510149817,4.58549636232756 c0.19881767879388798,0.4260378831297609 0.589461645479021,1.4817379094287324 0.8739238628302761,2.347796457493537 l2.407660242097411,7.385093602847249 c0.2827143696255953,0.866058548064804 0.5960160744502491,2.226758002491543 0.6973912425385618,3.0211547938042647 c0.10312301581397271,0.7943967913127215 -0.9219896752859411,2.5020440192830806 -1.6512791388178076,1.9540937572884984 l-6.516850245125369,-4.872999459141621 c-0.7288525016004511,-0.5462024142689228 -1.0255496530313293,-1.6757490069770546 -0.6593755545054458,-2.5103462959799687 l3.1915699470561685,-7.279348815444784 C26.527047307366757,3.7959061522604065 27.623384793287332,4.1612063269234625 27.821765510149817,4.58549636232756 z" id="svg_7"/>
	</g>
</g></g></svg>